<svg xmlns="http://www.w3.org/2000/svg" viewBox="0 0 512 512">
  <style>
    path { fill: #000; stroke: #000; stroke-width: 10; stroke-linejoin: round; }
    @media (prefers-color-scheme: dark) { path { fill: #fff; stroke: #fff; } }
  </style>
  <path fill-rule="evenodd" d="M 184.189 3.494 C 179.856 7.140, 179.603 10.742, 182.565 26.595 C 190.988 71.671, 195.262 100.489, 199.014 137.483 L 201.142 158.467 198.936 160.253 C 197.722 161.236, 190.828 165.568, 183.615 169.880 C 150.332 189.777, 139.764 194.132, 116.457 197.558 C 101.079 199.818, 94.026 203.241, 90.405 210.200 C 88.117 214.598, 88.671 217.871, 92.321 221.521 C 98.140 227.340, 105.203 227.244, 127.639 221.042 C 133.613 219.391, 142.325 217.393, 147 216.601 C 156.958 214.916, 203.737 210.403, 204.398 211.065 C 204.647 211.313, 205.172 221.224, 205.567 233.088 L 206.283 254.659 190.950 262.928 C 150.089 284.965, 115.584 309.306, 94.851 330.718 C 84.542 341.366, 81 346.885, 81 352.305 C 81 356.702, 83.584 359, 88.527 359 C 92.044 359, 92.945 358.385, 98.408 352.250 C 116.118 332.362, 135.588 316.666, 166.475 297.378 C 179.512 289.237, 204.715 275, 206.089 275 C 207.176 275, 208.124 329.457, 207.399 350.218 L 206.690 370.500 202.312 374.365 C 197.649 378.480, 195 382.651, 195 385.878 C 195 388.354, 199.512 392, 202.576 392 C 203.844 392, 205.088 392.337, 205.340 392.750 C 206.598 394.812, 201.271 451.183, 199.726 452.157 C 197.177 453.763, 177.018 455.419, 161 455.337 C 126.957 455.163, 104.897 448.703, 84.222 432.850 C 80.026 429.632, 76.009 427, 75.296 427 C 72.907 427, 73.966 430.722, 78.131 436.959 C 94.273 461.131, 134.206 474.703, 182.750 472.514 C 191.622 472.114, 198 472.203, 198 472.726 C 198 473.221, 196.650 481.820, 195 491.836 C 193.350 501.851, 192 510.260, 192 510.523 C 192 510.785, 192.669 511, 193.486 511 C 196.209 511, 204.481 491.366, 208.953 474.290 C 209.950 470.482, 210.411 470.022, 213.778 469.468 C 243.488 464.583, 266.727 457.375, 292.500 445.050 C 337.459 423.551, 369.844 392.273, 371.751 368.507 C 372.173 363.257, 371.847 361.345, 369.748 356.761 C 364.799 345.951, 354.796 341.227, 330.500 338.227 L 324.500 337.486 329.012 334.840 C 337.167 330.059, 357.621 314.233, 366.461 305.865 C 378.678 294.301, 387.292 283.164, 393.255 271.223 C 398.030 261.660, 398.416 260.336, 398.806 252.171 C 399.325 241.317, 397.078 235.170, 390.312 228.933 C 380.723 220.095, 368.168 216.732, 345 216.797 C 313.796 216.884, 273.389 226.162, 236 241.826 L 226.500 245.806 225.842 237.153 C 225.480 232.394, 225.016 223.945, 224.812 218.378 L 224.440 208.256 234.470 207.066 C 308.101 198.329, 361.744 186.051, 409.973 166.897 C 430.117 158.897, 438.402 154.917, 437.872 153.497 C 436.864 150.795, 423.197 153.076, 366 165.491 C 333.531 172.539, 301.375 178.596, 278.500 181.974 C 257.394 185.090, 223.963 188.749, 223.496 187.994 C 223.270 187.627, 222.818 182.641, 222.492 176.914 L 221.901 166.500 235.699 156.500 C 261.706 137.651, 296.394 107.954, 312.435 90.804 C 328.555 73.569, 334.263 62, 326.645 62 C 322.938 62, 314.046 68.514, 296.500 84.082 C 266.838 110.401, 221.601 146.934, 220.293 145.627 C 220.071 145.404, 218.795 133.359, 217.460 118.861 C 215.047 92.678, 210.634 53.641, 206.978 26.152 C 205.760 16.994, 204.404 10.665, 203.231 8.655 C 198.889 1.221, 189.814 -1.238, 184.189 3.494 M 197.500 182.757 C 195.300 184.209, 191.025 186.933, 188 188.810 L 182.500 192.223 190.401 191.612 C 194.746 191.275, 199.359 191, 200.651 191 C 202.832 191, 203 190.606, 203 185.500 C 203 182.475, 202.662 180.026, 202.250 180.059 C 201.838 180.091, 199.700 181.306, 197.500 182.757 M 322 236.053 C 296.668 239.197, 270.864 246.479, 238.750 259.546 L 227 264.327 226.997 296.413 C 226.995 314.061, 226.699 335.594, 226.340 344.264 L 225.686 360.029 231.286 357.552 C 234.366 356.190, 242.424 353.247, 249.193 351.011 C 272.098 343.446, 309.509 323.235, 332.640 305.929 C 344.165 297.305, 361.351 280.960, 367.529 272.746 C 372.729 265.832, 376.856 257.663, 377.664 252.683 C 378.872 245.239, 374.403 240.324, 363.725 237.351 C 357.269 235.555, 332.283 234.777, 322 236.053 M 312 355.457 C 311.175 355.657, 307.125 356.370, 303 357.043 C 290.946 359.010, 275.236 364.487, 254.685 373.888 C 244.133 378.715, 232.907 383.694, 229.739 384.953 C 223.132 387.577, 223.796 385.882, 221.504 406 C 220.595 413.975, 218.795 426.797, 217.503 434.494 C 216.211 442.190, 215.305 448.639, 215.490 448.823 C 216.178 449.511, 239.839 442.708, 251.666 438.420 C 287.065 425.589, 318.648 407.801, 336.938 390.397 C 347.315 380.521, 352.055 373.690, 352.739 367.625 C 353.166 363.831, 352.898 363.065, 350.474 361.159 C 345.966 357.613, 338.383 355.887, 325.500 355.477 C 318.900 355.267, 312.825 355.258, 312 355.457"/>
</svg>